<?xml version="1.0" encoding="UTF-8"?>
<svg width="80px" height="32px" viewBox="0 0 80 32" version="1.1" xmlns="http://www.w3.org/2000/svg" xmlns:xlink="http://www.w3.org/1999/xlink">
    <!-- Generator: Sketch 49.3 (51167) - http://www.bohemiancoding.com/sketch -->
    <title>Page 1</title>
    <desc>Created with Sketch.</desc>
    <defs></defs>
    <g id="Page-1" stroke="none" stroke-width="1" fill="none" fill-rule="evenodd">
        <g id="1" transform="translate(-148.000000, -540.000000)">
            <g id="Page-1" transform="translate(148.000000, 540.000000)">
                <polygon id="Fill-1" fill="#FFFFFF" points="0 32 80 32 80 0.001 0 0.001"></polygon>
                <polygon id="Fill-2" fill="#FDF0B4" points="22.093 20.763 44.611 20.763 44.611 16.167 22.093 16.167"></polygon>
                <g id="Group-9" transform="translate(10.000000, 10.000000)" fill="#000000">
                    <path d="M5.486,9.472 L9.129,9.472 L9.129,6.086 L5.486,6.086 L5.486,9.472 Z M5.486,5.871 L9.129,5.871 L9.129,2.743 L5.486,2.743 L5.486,5.871 Z M1.5,9.472 L5.014,9.472 L5.014,6.086 L1.5,6.086 L1.5,9.472 Z M1.5,5.871 L5.014,5.871 L5.014,2.743 L1.5,2.743 L1.5,5.871 Z M4.972,0.3 C5.085,0.329 5.243,0.358 5.443,0.386 C5.671,0.443 5.843,0.486 5.957,0.515 C6.1,0.601 6.1,0.686 5.957,0.772 C5.899,0.772 5.829,0.786 5.743,0.815 C5.628,0.815 5.542,0.829 5.486,0.858 L5.486,2.528 L8.829,2.528 L9.171,1.843 C9.485,2.015 9.757,2.2 9.986,2.4 C10.071,2.515 10.071,2.601 9.986,2.657 C9.957,2.687 9.9,2.715 9.814,2.743 C9.757,2.772 9.671,2.815 9.557,2.871 L9.557,9.129 C9.557,9.273 9.571,9.714 9.6,10.457 C9.429,10.543 9.271,10.586 9.128,10.586 L9.128,9.729 L1.5,9.729 L1.5,10.457 C1.3,10.571 1.128,10.614 0.986,10.586 C1.014,9.843 1.029,9.329 1.029,9.043 L1.029,3.515 C1.029,3.286 1.014,2.715 0.986,1.8 L1.714,2.528 L5.014,2.528 L5.014,1.586 C5.014,1.414 5,0.986 4.972,0.3 Z" id="Fill-3"></path>
                    <path d="M20.7256,0.8145 C20.8396,0.9005 21.0106,1.0285 21.2396,1.2005 C21.3256,1.2575 21.3826,1.3005 21.4116,1.3295 C21.5246,1.4435 21.5116,1.5295 21.3686,1.5855 L20.9396,1.5855 C20.5686,2.4155 20.1256,3.1435 19.6116,3.7715 C20.6106,4.2575 21.4546,4.7435 22.1396,5.2285 C22.4256,5.4285 22.5256,5.6435 22.4396,5.8715 C22.3256,6.0145 22.1396,5.9715 21.8826,5.7435 C21.2826,5.1715 20.4966,4.5575 19.5256,3.9005 C18.7536,4.7295 17.6966,5.5015 16.3536,6.2145 L16.2686,6.0435 C18.4116,4.7295 19.7966,3.2145 20.4256,1.5005 L18.0686,1.5005 C17.6966,1.5005 17.3966,1.5145 17.1686,1.5435 L16.9966,1.2435 C17.1686,1.2435 17.3966,1.2575 17.6826,1.2865 L18.0686,1.2865 L20.4686,1.2865 L20.7256,0.8145 Z M20.9826,5.7005 C21.0686,5.7575 21.1966,5.8865 21.3686,6.0855 C21.5396,6.2565 21.6536,6.3855 21.7116,6.4715 C21.7396,6.5295 21.7536,6.5725 21.7536,6.6005 C21.7256,6.6285 21.6826,6.6425 21.6256,6.6425 L19.4826,6.6425 L19.4826,9.6855 L21.1966,9.6855 L21.6686,8.8715 C21.7536,8.9575 21.8826,9.1005 22.0546,9.2995 C22.2256,9.4715 22.3536,9.6005 22.4396,9.6855 C22.4966,9.7435 22.5256,9.7995 22.5256,9.8575 C22.4966,9.8855 22.4396,9.9005 22.3536,9.9005 L17.0826,9.9005 C16.9966,9.9005 16.6676,9.9285 16.0976,9.9865 L15.8396,9.6005 C16.0116,9.6005 16.2396,9.6145 16.5256,9.6425 C16.7536,9.6705 16.9826,9.6855 17.2116,9.6855 L19.0116,9.6855 L19.0116,6.6425 L17.7686,6.6425 C17.7106,6.6425 17.5546,6.6585 17.2966,6.6855 C17.1536,6.7145 17.0396,6.7285 16.9546,6.7285 L16.7396,6.3855 C17.1966,6.4155 17.5816,6.4285 17.8966,6.4285 L20.5976,6.4285 L20.9826,5.7005 Z M13.7826,0.3425 C14.1826,0.4575 14.4536,0.5575 14.5976,0.6425 C14.7106,0.6715 14.7686,0.7145 14.7686,0.7715 C14.7686,0.8295 14.7106,0.8575 14.5976,0.8575 L14.2116,0.8575 L13.8686,2.1425 L15.4966,2.1425 L15.9256,1.3295 C16.1536,1.6145 16.3536,1.8855 16.5256,2.1425 C16.5826,2.2005 16.6116,2.2575 16.6116,2.3145 C16.5826,2.3425 16.5256,2.3575 16.4396,2.3575 L13.8256,2.3575 L13.0116,5.4005 L14.4256,5.4005 L14.4256,4.1145 L14.4256,3.1285 C14.5116,3.1285 14.6396,3.1435 14.8106,3.1715 C15.0106,3.2005 15.1396,3.2295 15.1966,3.2565 C15.3106,3.2865 15.3686,3.3295 15.3686,3.3855 C15.3686,3.4435 15.3106,3.4865 15.1966,3.5145 C15.1676,3.5435 15.1116,3.5575 15.0256,3.5575 C14.9396,3.5855 14.8826,3.6005 14.8536,3.6005 L14.8536,5.4005 L15.4546,5.4005 L15.8826,4.6715 C15.9106,4.7005 15.9396,4.7435 15.9686,4.7995 C16.1966,5.0855 16.3396,5.2715 16.3966,5.3575 C16.4826,5.4435 16.5106,5.5015 16.4826,5.5285 C16.4826,5.5855 16.4256,5.6145 16.3106,5.6145 L14.8536,5.6145 L14.8536,7.7995 L16.6116,7.5005 L16.6546,7.6715 L14.8536,8.1005 L14.8536,9.2565 C14.8536,9.4575 14.8686,9.8855 14.8966,10.5435 C14.7536,10.6285 14.5816,10.6715 14.3826,10.6715 C14.4106,10.1285 14.4256,9.7005 14.4256,9.3855 L14.4256,8.2285 L12.6256,8.6575 C12.6256,8.8005 12.5966,8.8865 12.5396,8.9145 C12.4546,8.9145 12.3826,8.8575 12.3256,8.7435 C12.3256,8.6865 12.2966,8.5855 12.2396,8.4435 C12.2106,8.3005 12.1826,8.2145 12.1546,8.1855 C12.3826,8.2145 13.1396,8.1155 14.4256,7.8855 L14.4256,5.6145 L13.0976,5.6145 L12.7966,5.9145 C12.5116,5.7435 12.2966,5.5435 12.1546,5.3145 C12.5246,5.2285 12.6966,5.1285 12.6686,5.0145 L13.3536,2.3575 L12.8396,2.3575 C12.6396,2.3575 12.4546,2.3725 12.2826,2.4005 L12.0686,2.0575 C12.1546,2.0575 12.2676,2.0725 12.4116,2.1005 C12.5826,2.1285 12.7396,2.1425 12.8826,2.1425 L13.3966,2.1425 C13.6256,1.2865 13.7536,0.6855 13.7826,0.3425 Z" id="Fill-5"></path>
                    <path d="M28.937,2.7862 C29.423,3.1862 29.766,3.5862 29.966,3.9862 C30.023,4.3292 29.937,4.5572 29.708,4.6722 C29.537,4.6722 29.423,4.5572 29.366,4.3292 C29.394,3.9292 29.223,3.4432 28.852,2.8712 L28.937,2.7862 Z M27.309,0.4722 C27.68,0.4722 28.008,0.5152 28.294,0.6002 C28.351,0.6292 28.38,0.6582 28.38,0.6852 C28.38,0.7432 28.351,0.7862 28.294,0.8142 C28.18,0.8722 28.008,0.9002 27.78,0.9002 L27.78,1.8432 L30.994,1.8432 L30.994,1.4142 C30.994,1.1862 30.979,0.8722 30.951,0.4722 C31.322,0.4722 31.638,0.5152 31.895,0.6002 C31.951,0.6292 31.98,0.6582 31.98,0.6852 C31.98,0.7432 31.951,0.7862 31.895,0.8142 C31.723,0.8722 31.565,0.9002 31.423,0.9002 L31.423,1.8432 L33.009,1.8432 L33.48,1.0712 C33.766,1.3012 34.022,1.5572 34.252,1.8432 C34.337,2.0152 34.322,2.1002 34.209,2.1002 L31.423,2.1002 L31.423,2.5282 L31.423,2.7002 C31.451,2.9862 31.466,3.2292 31.466,3.4292 C31.294,3.5722 31.123,3.6292 30.951,3.6002 C30.951,3.3432 30.966,3.0722 30.994,2.7862 L30.994,2.5282 L30.994,2.1002 L27.78,2.1002 L27.78,2.5712 L27.78,2.7432 C27.808,3.0002 27.823,3.2292 27.823,3.4292 C27.651,3.5722 27.48,3.6152 27.309,3.5572 C27.309,3.3572 27.323,3.1292 27.352,2.8712 L27.352,2.5712 L27.352,2.1002 L25.423,2.1002 C25.251,2.1002 24.966,2.1422 24.566,2.2282 L24.352,1.8002 C24.837,1.8292 25.223,1.8432 25.509,1.8432 L27.352,1.8432 L27.352,1.4572 L27.352,1.2432 C27.323,0.9582 27.309,0.7002 27.309,0.4722 Z M33.651,4.2002 C33.994,4.4862 34.266,4.7862 34.466,5.1002 C34.494,5.1292 34.509,5.1722 34.509,5.2282 C34.479,5.2582 34.437,5.2712 34.38,5.2712 L26.623,5.2712 L26.623,9.6422 L32.065,9.6422 L32.623,8.9142 C32.794,9.0572 33.065,9.3002 33.437,9.6422 C33.466,9.7002 33.48,9.7572 33.48,9.8142 C33.451,9.8432 33.408,9.8572 33.352,9.8572 L26.708,9.8572 L26.366,10.2862 C26.051,10.1142 25.794,9.9142 25.594,9.6852 C25.994,9.5432 26.18,9.4422 26.151,9.3862 L26.151,5.2712 L25.251,5.2712 C25.108,5.2712 24.78,5.3142 24.266,5.4002 L24.094,4.9722 C24.294,4.9722 24.551,4.9862 24.866,5.0152 C25.123,5.0432 25.28,5.0572 25.337,5.0572 L33.18,5.0572 L33.651,4.2002 Z" id="Fill-6"></path>
                    <path d="M38.392,3.558 L44.735,3.558 L44.735,1.072 L38.392,1.072 L38.392,3.558 Z M37.92,0.257 L38.605,0.858 L44.52,0.858 L44.82,0.3 C45.105,0.443 45.362,0.615 45.592,0.815 C45.677,0.9 45.662,0.972 45.549,1.028 C45.434,1.086 45.319,1.144 45.206,1.2 L45.206,2.786 C45.206,2.929 45.22,3.343 45.248,4.028 C45.077,4.172 44.905,4.229 44.734,4.2 L44.734,3.772 L38.392,3.772 L38.392,4.157 C38.191,4.272 38.034,4.315 37.92,4.286 C37.92,3.972 37.934,3.629 37.963,3.257 L37.963,2.914 L37.963,1.672 L37.963,1.414 C37.934,0.986 37.92,0.601 37.92,0.257 Z M45.634,4.543 C45.948,4.8 46.22,5.072 46.448,5.358 C46.477,5.415 46.491,5.472 46.491,5.528 C46.463,5.558 46.42,5.571 46.362,5.571 L41.862,5.571 L41.862,7.586 L44.349,7.586 L44.777,6.815 C45.177,7.101 45.448,7.371 45.592,7.629 C45.648,7.687 45.662,7.73 45.634,7.757 C45.634,7.786 45.605,7.8 45.549,7.8 L41.862,7.8 L41.862,9.943 L45.291,9.943 L45.806,9.172 C46.148,9.4 46.434,9.657 46.663,9.943 C46.748,10.057 46.72,10.129 46.577,10.157 L37.748,10.157 C37.634,10.157 37.362,10.171 36.935,10.2 C36.734,10.229 36.592,10.243 36.506,10.243 L36.377,9.9 C36.92,9.929 37.391,9.943 37.791,9.943 L41.392,9.943 L41.392,7.8 L38.605,7.8 C38.435,7.773 38.063,7.8 37.491,7.886 L37.277,7.5 C37.849,7.558 38.306,7.586 38.648,7.586 L41.392,7.586 L41.392,5.571 L37.791,5.571 C37.648,5.543 37.32,5.571 36.806,5.657 L36.634,5.272 C36.948,5.301 37.263,5.329 37.577,5.358 L37.791,5.358 L45.12,5.358 L45.634,4.543 Z" id="Fill-7"></path>
                    <path d="M55.2598,6.3858 C55.5448,6.3858 55.8018,6.4148 56.0308,6.4718 C56.0878,6.4998 56.1168,6.5298 56.1168,6.5578 C56.1168,6.5858 56.0878,6.6148 56.0308,6.6428 C55.9458,6.6998 55.8448,6.7288 55.7318,6.7288 L55.7318,9.4288 C55.7318,9.7138 55.9168,9.8578 56.2878,9.8578 L57.4458,9.8578 C57.9028,9.8858 58.1308,9.7288 58.1308,9.3858 L58.2598,7.6718 L58.4308,7.6718 L58.5168,9.3428 C58.4888,9.4858 58.5738,9.5848 58.7748,9.6428 C58.9458,9.7288 58.9458,9.8428 58.7748,9.9868 C58.5448,10.1858 58.1308,10.2858 57.5308,10.2858 L56.2018,10.2858 C55.5738,10.2858 55.2738,10.0138 55.3028,9.4718 L55.3028,7.4998 C55.3028,7.3008 55.2878,6.9288 55.2598,6.3858 Z M52.6028,0.5578 L53.2878,1.0288 L57.0168,1.0288 L57.3598,0.4718 C57.6168,0.6428 57.8598,0.8148 58.0878,0.9868 C58.2308,1.0718 58.2308,1.1568 58.0878,1.2428 C58.0598,1.2428 58.0028,1.2718 57.9168,1.3288 C57.8308,1.3578 57.7598,1.3868 57.7018,1.4138 L57.7018,5.6568 C57.7018,5.8008 57.7168,6.0298 57.7448,6.3428 C57.7738,6.6578 57.7878,6.9148 57.7878,7.1148 C57.5308,7.2288 57.3448,7.2718 57.2318,7.2428 C57.2588,6.4438 57.2748,5.9138 57.2748,5.6568 L57.2748,1.2858 L53.0738,1.2858 L53.0738,5.5718 L53.0738,5.8708 C53.1028,6.2428 53.1308,6.6008 53.1598,6.9438 C52.9888,7.0578 52.8018,7.1008 52.6028,7.0718 C52.6308,6.3858 52.6458,5.8708 52.6458,5.5288 L52.6458,2.1008 C52.6458,1.8718 52.6308,1.3578 52.6028,0.5578 Z M54.8308,2.1008 L54.9168,2.1008 C55.2878,2.1578 55.5598,2.2148 55.7318,2.2718 C55.8168,2.3008 55.8598,2.3288 55.8598,2.3578 C55.8598,2.4148 55.8168,2.4578 55.7318,2.4868 C55.6738,2.5148 55.6028,2.5288 55.5168,2.5288 C55.4588,2.5578 55.4028,2.5718 55.3458,2.5718 C55.4028,4.9148 55.2598,6.5148 54.9168,7.3708 C54.4888,8.7428 53.2448,9.8278 51.1888,10.6288 L51.1028,10.4568 C52.9888,9.6008 54.1308,8.5428 54.5308,7.2858 C54.7598,6.5428 54.8738,5.2428 54.8738,3.3858 C54.8738,3.1868 54.8598,2.7578 54.8308,2.1008 Z M51.7018,0.7718 C51.9888,1.0008 52.2168,1.2428 52.3888,1.4998 C52.4738,1.5858 52.4588,1.6438 52.3458,1.6718 L50.3738,1.6718 L50.3738,4.5428 L51.2318,4.5428 L51.6168,3.7718 C51.7308,3.8578 51.9028,4.0428 52.1308,4.3288 C52.2168,4.4438 52.2878,4.5298 52.3458,4.5858 C52.3728,4.6148 52.3888,4.6568 52.3888,4.7148 C52.3598,4.7428 52.3168,4.7568 52.2598,4.7568 L50.3738,4.7568 L50.3738,7.9718 L52.1738,7.4138 L52.2598,7.6288 L48.7448,8.9138 C48.7168,9.0298 48.6738,9.1008 48.6168,9.1288 C48.5878,9.1568 48.5448,9.1288 48.4888,9.0428 C48.3738,8.8708 48.2878,8.6718 48.2318,8.4438 C48.8878,8.3288 49.4588,8.1998 49.9458,8.0578 L49.9458,4.7568 L49.1738,4.7568 C49.0878,4.7568 48.8598,4.7998 48.4888,4.8858 L48.2748,4.4998 C48.7308,4.5298 49.0448,4.5428 49.2168,4.5428 L49.9458,4.5428 L49.9458,1.6718 L49.2168,1.6718 L49.0028,1.6718 C48.8028,1.6998 48.6168,1.7298 48.4458,1.7568 L48.2748,1.4138 C48.7308,1.4438 49.0598,1.4568 49.2598,1.4568 L51.2748,1.4568 L51.7018,0.7718 Z" id="Fill-8"></path>
                </g>
            </g>
        </g>
    </g>
</svg>