<svg xmlns="http://www.w3.org/2000/svg" xmlns:xlink="http://www.w3.org/1999/xlink" viewBox="3378 276 20 20">
  <defs>
    <style>
      .cls-1 {
        fill: #fff;
      }

      .cls-2 {
        clip-path: url(#clip-path);
      }
    </style>
    <clipPath id="clip-path">
      <path id="Path_922" data-name="Path 922" class="cls-1" d="M-174,415h20v20h-20Z"/>
    </clipPath>
  </defs>
  <g id="icon_notification_w" transform="translate(3108 -90)">
    <g id="icon_notification" class="cls-2" transform="translate(444 -49)">
      <g id="Rectangle">
        <path id="Path_921" data-name="Path 921" class="cls-1" d="M13,5.5V13h3V5.5ZM5,13V5.5H2V13ZM3.5,11.5H0v3H3.5Zm11,3H18v-3H14.5Zm-7-3h-4v3h4ZM6,13v.5H9V13Zm8.5-1.5h-4v3h4Zm-4,0h-3v3h3Zm1.5,2V13H9v.5Zm-3,3a3,3,0,0,0,3-3H9Zm-3-3a3,3,0,0,0,3,3v-3Zm3-12a4,4,0,0,1,4,4h3a7,7,0,0,0-7-7Zm0-3a7,7,0,0,0-7,7H5a4,4,0,0,1,4-4Z" transform="translate(-173 417.5)"/>
      </g>
    </g>
  </g>
</svg>
