<svg xmlns="http://www.w3.org/2000/svg" xmlns:xlink="http://www.w3.org/1999/xlink" viewBox="2258 152 20 20">
  <defs>
    <style>
      .cls-1 {
        fill: #fff;
      }

      .cls-2 {
        clip-path: url(#clip-path);
      }
    </style>
    <clipPath id="clip-path">
      <path id="Path_852" data-name="Path 852" class="cls-1" d="M36,383H56v20H36Z"/>
    </clipPath>
  </defs>
  <g id="icon_link" transform="translate(1502 -903)">
    <g id="link" class="cls-2" transform="translate(720 672)">
      <g id="Vector">
        <path id="Path_851" data-name="Path 851" d="M.995,8.2l.707.707ZM3.4,5.8,2.69,5.092Zm4.31,6.712.707-.707L7,10.39l-.707.707ZM5.8,13.005,5.092,12.3Zm1.695-6.5.707.707L9.615,5.8l-.707-.707Zm-1.2-5.017L5.586,2.2,7,3.61,7.707,2.9ZM8.2.995l.707.707h0Zm4.8,4.8.707.707h0ZM10.6,8.2,9.9,7.494h0Zm-4.1-.707L5.8,6.787,4.385,8.2l.707.707ZM1.7,8.908l2.4-2.4L2.69,5.092l-2.4,2.4ZM6.293,11.1l-1.2,1.2,1.414,1.414,1.2-1.2ZM.288,7.494a4.4,4.4,0,0,0,0,6.218L1.7,12.3a2.4,2.4,0,0,1,0-3.39ZM4.1,6.506a2.4,2.4,0,0,1,3.39,0L8.908,5.092a4.4,4.4,0,0,0-6.218,0ZM5.092,12.3a2.4,2.4,0,0,1-3.39,0L.288,13.712a4.4,4.4,0,0,0,6.218,0ZM7.707,2.9l1.2-1.2L7.494.288l-1.2,1.2ZM12.3,5.092l-2.4,2.4L11.31,8.908l2.4-2.4ZM8.908,1.7a2.4,2.4,0,0,1,3.39,0L13.712.288a4.4,4.4,0,0,0-6.218,0Zm3.39,0a2.4,2.4,0,0,1,0,3.39l1.414,1.414a4.4,4.4,0,0,0,0-6.218ZM9.9,7.494a2.4,2.4,0,0,1-3.39,0L5.092,8.908a4.4,4.4,0,0,0,6.218,0Z" transform="translate(39 386)"/>
      </g>
    </g>
  </g>
</svg>
