<?xml version="1.0" encoding="UTF-8"?>
<svg width="20px" height="20px" viewBox="0 0 20 20" version="1.1" xmlns="http://www.w3.org/2000/svg" xmlns:xlink="http://www.w3.org/1999/xlink">
    <!-- Generator: Sketch 50 (54983) - http://www.bohemiancoding.com/sketch -->
    <title>icon-icon√</title>
    <desc>Created with Sketch.</desc>
    <defs></defs>
    <g id="Page-1" stroke="none" stroke-width="1" fill="none" fill-rule="evenodd">
        <g id="icon-icon√" transform="translate(-172.000000, -41.000000)">
            <g id="page_icon" transform="translate(20.000000, 30.000000)">
                <g id="topBar">
                    <g id="explore_btn_menu" transform="translate(100.000000, 0.000000)">
                        <g id="Group-4" transform="translate(52.909091, 11.000000)">
                            <path d="M9.81818182,8.18181818 L11.8181818,10.1818182 L9.81818182,10.1818182 L9.81818182,8.18181818 Z M6.36363636,10.1818182 L6.36363636,8.18181818 L11.8181818,8.18181818 L11.8181818,26.3636364 L6.36363636,26.3636364 L6.36363636,24.3636364 L9.81818182,24.3636364 L9.81818182,10.1818182 L6.36363636,10.1818182 Z M11.8181818,24.3636364 L9.81818182,26.3636364 L9.81818182,24.3636364 L11.8181818,24.3636364 Z M11.8181818,24.3636364 L9.81818182,26.3636364 L9.81818182,24.3636364 L11.8181818,24.3636364 Z M9.81818182,10.1818182 L6.36363636,10.1818182 L6.36363636,8.18181818 L11.8181818,8.18181818 L11.8181818,26.3636364 L6.36363636,26.3636364 L6.36363636,24.3636364 L9.81818182,24.3636364 L9.81818182,10.1818182 Z M9.81818182,8.18181818 L11.8181818,10.1818182 L9.81818182,10.1818182 L9.81818182,8.18181818 Z" id="Rectangle-3" fill="#000000" fill-rule="nonzero" transform="translate(9.090909, 17.272727) rotate(-90.000000) translate(-9.090909, -17.272727) "></path>
                            <circle id="Oval-4" stroke="#000000" stroke-width="2" cx="9.09090909" cy="5.45454545" r="4.45454545"></circle>
                        </g>
                    </g>
                </g>
            </g>
        </g>
    </g>
</svg>
