<svg xmlns="http://www.w3.org/2000/svg" viewBox="8836 7552 40 40">
  <g id="noun_591798" transform="translate(8625 5852)">
    <g id="Group_1625" data-name="Group 1625" transform="translate(211 1700)">
      <path id="Path_354" data-name="Path 354" d="M236.5,1712.012a7.562,7.562,0,0,0,1.187-4.012,8.219,8.219,0,0,0-8.421-8,8.519,8.519,0,0,0-6.215,2.648A22.067,22.067,0,0,1,236.5,1712.012Z" transform="translate(-197.684 -1700)"/>
      <path id="Path_355" data-name="Path 355" d="M225.636,1702.648a8.51,8.51,0,0,0-6.215-2.648,8.219,8.219,0,0,0-8.421,8,7.581,7.581,0,0,0,1.187,4.012A22.067,22.067,0,0,1,225.636,1702.648Z" transform="translate(-211 -1700)"/>
      <path id="Path_356" data-name="Path 356" d="M229.895,1703c-9.882,0-17.895,7.612-17.895,17s8.013,17,17.895,17,17.895-7.612,17.895-17S239.777,1703,229.895,1703Zm0,30c-7.545,0-13.684-5.832-13.684-13s6.139-13,13.684-13,13.684,5.832,13.684,13S237.44,1733,229.895,1733Z" transform="translate(-209.895 -1697)"/>
      <path id="Path_357" data-name="Path 357" d="M224.421,1715H216v2h10.526v-10h-2.105Z" transform="translate(-205.474 -1693)"/>
    </g>
  </g>
</svg>
