<svg xmlns="http://www.w3.org/2000/svg" viewBox="3606 3850 30 30">
  <defs>
    <style>
      .cls-1 {
        fill: #fff;
      }
    </style>
  </defs>
  <g id="Group_1631" data-name="Group 1631" transform="translate(3520 3390)">
    <rect id="Rectangle_1221" data-name="Rectangle 1221" class="cls-1" width="30" height="30" transform="translate(86 460)"/>
    <g id="_2459690730855b09d29b124cd0abf927" data-name="2459690730855b09d29b124cd0abf927" transform="translate(80 373.6)">
      <path id="Path_362" data-name="Path 362" d="M387.09,362.593c0-3.363-3.243-6.093-7.245-6.093s-7.245,2.727-7.245,6.093,3.243,6.093,7.245,6.093a8.41,8.41,0,0,0,2.751-.455l2.429,1.227-.711-2.07A5.8,5.8,0,0,0,387.09,362.593Zm-9.245-.9a.979.979,0,1,1,.979-.979A.98.98,0,0,1,377.845,361.7Zm4.567,0a.979.979,0,1,1,.979-.979A.98.98,0,0,1,382.413,361.7Z" transform="translate(-354.09 -258.878)"/>
      <path id="Path_363" data-name="Path 363" d="M25.755,97.272a8.862,8.862,0,0,1,.941.049c-.7-3.366-4.142-5.921-8.282-5.921C13.767,91.4,10,94.62,10,98.591a6.853,6.853,0,0,0,3.185,5.633l-.9,2.563,3.037-1.507a9.657,9.657,0,0,0,3.093.5c.04,0,.077,0,.117,0a5.514,5.514,0,0,1-.4-2.065C18.127,100.161,21.549,97.272,25.755,97.272Zm-4.516-2.338a1.129,1.129,0,1,1-1.129,1.129A1.129,1.129,0,0,1,21.239,94.934ZM15.5,97.19a1.129,1.129,0,1,1,1.129-1.129A1.129,1.129,0,0,1,15.5,97.19Z" transform="translate(0 0)"/>
    </g>
  </g>
</svg>
